nColumns=19
nRows=81
DataType=double
version=3
OpenSimVersion=4.1
endheader
time	ground_force_1_vx	ground_force_1_vy	ground_force_1_vz	ground_force_1_px	ground_force_1_py	ground_force_1_pz	ground_force_1_mx	ground_force_1_my	ground_force_1_mz	ground_force_2_vx	ground_force_2_vy	ground_force_2_vz	ground_force_2_px	ground_force_2_py	ground_force_2_pz	ground_force_2_mx	ground_force_2_my	ground_force_2_mz
3.77	46.4638	56.2696	-6.20083	0.194232	0	-0.15615	-0	0.768525	-0	0	0	0	-0.000933702	0	-0.00063465	0	0	0
3.78	0	0	0	-0.000933768	0	-0.000634606	0	0	0	0	0	0	-0.000933707	0	-0.000634548	0	0	0
3.79	0	0	0	-0.000933772	0	-0.000634504	0	0	0	0	0	0	-0.000933711	0	-0.000634447	0	0	0
3.8	0	0	0	-0.000933776	0	-0.000634402	0	0	0	0	0	0	-0.000933716	0	-0.000634345	0	0	0
3.81	0	0	0	-0.00093378	0	-0.000634299	0	0	0	0	0	0	-0.00093372	0	-0.000634243	0	0	0
3.82	0	0	0	-0.000933783	0	-0.000634197	0	0	0	0	0	0	-0.000933725	0	-0.000634142	0	0	0
3.83	0	0	0	-0.000933787	0	-0.000634094	0	0	0	0	0	0	-0.000933729	0	-0.00063404	0	0	0
3.84	0	0	0	-0.000933791	0	-0.000633992	0	0	0	0	0	0	-0.000933734	0	-0.000633939	0	0	0
3.85	0	0	0	-0.000933795	0	-0.00063389	0	0	0	0	0	0	-0.000933738	0	-0.000633837	0	0	0
3.86	0	0	0	-0.000933798	0	-0.000633788	0	0	0	-38.4879	103.944	-16.9081	1.04525	0	-0.382772	0	-0.456558	0
3.87	0	0	0	-0.000933802	0	-0.000633686	0	0	0	-61.85	269.843	-21.6671	1.02014	0	-0.379263	0	-2.94338	0
3.88	0	0	0	-0.000933806	0	-0.000633585	0	0	0	-71.6199	546.687	1.00919	1.00898	0	-0.376673	0	-3.02908	0
3.89	0	0	0	-0.000933809	0	-0.000633483	0	0	0	-91.7992	843.665	43.7075	0.99954	0	-0.3756	0	-1.79005	0
3.9	0	0	0	-0.000933813	0	-0.000633382	0	0	0	-146.126	1028.44	66.6828	0.989162	0	-0.375962	0	-1.04035	0
3.91	0	0	0	-0.000933817	0	-0.00063328	0	0	0	-211.045	1110.99	32.1628	0.973913	0	-0.377309	0	-1.38361	0
3.92	0	0	0	-0.000933821	0	-0.000633179	0	0	0	-250.911	1205.74	-11.1523	0.949471	0	-0.378518	0	-2.21229	0
3.93	0	0	0	-0.000933824	0	-0.000633079	0	0	0	-245.56	1357.3	12.4341	0.915452	0	-0.378742	0	-2.74523	0
3.94	0	0	0	-0.000933828	0	-0.000632978	0	0	0	-205.733	1516.83	62.1745	0.875851	0	-0.378514	0	-2.64428	0
3.95	0	0	0	-0.000933832	0	-0.000632878	0	0	0	-145.429	1618.32	64.2651	0.834272	0	-0.37868	0	-1.90741	0
3.96	0	0	0	-0.000933835	0	-0.000632778	0	0	0	-72.1462	1648.81	38.0061	0.791746	0	-0.379141	0	-0.721658	0
3.97	0	0	0	-0.000933839	0	-0.000632678	0	0	0	7.58152	1625.9	39.5542	0.748164	0	-0.379168	-0	0.51037	-0
3.98	0	0	0	-0.000933842	0	-0.000632579	0	0	0	85.3481	1551.9	54.8728	0.703614	0	-0.37825	-0	1.33953	-0
3.99	0	0	0	-0.000933846	0	-0.00063248	0	0	0	155.381	1419.56	42.0942	0.658637	0	-0.376352	-0	1.57033	-0
4	0	0	0	-0.00093385	0	-0.000632381	0	0	0	208.85	1232.25	12.3057	0.614152	0	-0.373647	-0	1.34794	-0
4.01	0	0	0	-0.000933853	0	-0.000632282	0	0	0	237.084	1009.64	-4.80159	0.571262	0	-0.370298	-0	1.09829	-0
4.02	0	0	0	-0.000933857	0	-0.000632184	0	0	0	234.514	777.597	-9.37435	0.530371	0	-0.366598	-0	1.38811	-0
4.03	0	0	0	-0.00093386	0	-0.000632087	0	0	0	206.186	552.327	-12.6183	0.489379	0	-0.36315	-0	2.41658	-0
4.04	0	0	0	-0.000933864	0	-0.00063199	0	0	0	166.035	346.416	-15.9828	0.441184	0	-0.360629	-0	3.37766	-0
4.05	0	0	0	-0.000933868	0	-0.000631893	0	0	0	119.437	183.605	-16.4362	0.369296	0	-0.358302	-0	2.82046	-0
4.06	0	0	0	-0.000933871	0	-0.000631796	0	0	0	68.4922	82.4438	-10.0175	0.236382	0	-0.342417	-0	0.314958	-0
4.07	0	0	0	-0.000933875	0	-0.0006317	0	0	0	0	0	0	-0.000933835	0	-0.000631663	0	0	0
4.08	0	0	0	-0.000933878	0	-0.000631605	0	0	0	0	0	0	-0.000933839	0	-0.000631568	0	0	0
4.09	0	0	0	-0.000933882	0	-0.00063151	0	0	0	0	0	0	-0.000933843	0	-0.000631474	0	0	0
4.1	0	0	0	-0.000933885	0	-0.000631415	0	0	0	0	0	0	-0.000933848	0	-0.00063138	0	0	0
4.11	0	0	0	-0.000933888	0	-0.000631321	0	0	0	0	0	0	-0.000933852	0	-0.000631287	0	0	0
4.12	0	0	0	-0.000933892	0	-0.000631228	0	0	0	0	0	0	-0.000933856	0	-0.000631194	0	0	0
4.13	0	0	0	-0.000933895	0	-0.000631135	0	0	0	0	0	0	-0.00093386	0	-0.000631101	0	0	0
4.14	-28.1431	72.7951	-10.0331	1.15992	0	-0.165782	0	-0.627306	0	0	0	0	-0.000933864	0	-0.00063101	0	0	0
4.15	-52.7348	203.605	-20.2878	1.00293	0	-0.293277	0	-0.505287	0	0	0	0	-0.000933868	0	-0.000630918	0	0	0
4.16	-67.9968	458.815	-20.1319	0.984169	0	-0.296949	-0	0.18089	-0	0	0	0	-0.000933872	0	-0.000630828	0	0	0
4.17	-81.6651	793.43	-1.1506	0.970864	0	-0.296823	-0	1.34237	-0	0	0	0	-0.000933876	0	-0.000630738	0	0	0
4.18	-125.283	1062.25	32.2464	0.958216	0	-0.295536	-0	1.99783	-0	0	0	0	-0.00093388	0	-0.000630648	0	0	0
4.19	-193.055	1194.43	38.1507	0.942742	0	-0.293401	-0	1.65768	-0	0	0	0	-0.000933884	0	-0.000630559	0	0	0
4.2	-243.18	1276.2	-10.7978	0.920483	0	-0.290346	-0	0.735204	-0	0	0	0	-0.000933888	0	-0.000630471	0	0	0
4.21	-241.923	1384.98	-54.5813	0.889673	0	-0.2864	0	-0.157901	0	0	0	0	-0.000933892	0	-0.000630384	0	0	0
4.22	-204.297	1506.96	-48.1569	0.852603	0	-0.282087	0	-0.834282	0	0	0	0	-0.000933896	0	-0.000630297	0	0	0
4.23	-153.67	1589.98	-44.6838	0.81275	0	-0.278186	0	-1.39469	0	0	0	0	-0.0009339	0	-0.00063021	0	0	0
4.24	-94.0623	1612.98	-79.1598	0.77147	0	-0.275067	0	-1.90965	0	0	0	0	-0.000933903	0	-0.000630125	0	0	0
4.25	-26.6275	1589.25	-101.011	0.728481	0	-0.272659	0	-2.4921	0	0	0	0	-0.000933907	0	-0.00063004	0	0	0
4.26	46.2162	1530.42	-82.8585	0.683685	0	-0.270909	0	-3.40275	0	0	0	0	-0.000933911	0	-0.000629956	0	0	0
4.27	115.229	1431.25	-62.7206	0.637864	0	-0.269974	0	-4.78642	0	0	0	0	-0.000933915	0	-0.000629872	0	0	0
4.28	171.073	1283.04	-52.4265	0.592335	0	-0.269944	0	-6.3424	0	0	0	0	-0.000933918	0	-0.00062979	0	0	0
4.29	209.397	1091.98	-33.6375	0.548471	0	-0.270552	0	-7.35045	0	0	0	0	-0.000933922	0	-0.000629708	0	0	0
4.3	221.605	873.863	-9.20377	0.507056	0	-0.271235	0	-7.10268	0	0	0	0	-0.000933925	0	-0.000629627	0	0	0
4.31	202.928	643.119	8.38541	0.467294	0	-0.2713	0	-5.55161	0	0	0	0	-0.000933929	0	-0.000629546	0	0	0
4.32	166.159	421.059	14.283	0.425604	0	-0.26972	0	-3.66757	0	0	0	0	-0.000933933	0	-0.000629467	0	0	0
4.33	122.247	236.197	9.50301	0.37288	0	-0.263622	0	-2.79195	0	0	0	0	-0.000933936	0	-0.000629388	0	0	0
4.34	74.4698	109.949	3.82273	0.280882	0	-0.238278	0	-3.20431	0	0	0	0	-0.00093394	0	-0.00062931	0	0	0
4.35	0	0	0	-0.000933964	0	-0.000629253	0	0	0	0	0	0	-0.000933943	0	-0.000629233	0	0	0
4.36	0	0	0	-0.000933967	0	-0.000629176	0	0	0	0	0	0	-0.000933946	0	-0.000629156	0	0	0
4.37	0	0	0	-0.00093397	0	-0.0006291	0	0	0	0	0	0	-0.00093395	0	-0.000629081	0	0	0
4.38	0	0	0	-0.000933972	0	-0.000629025	0	0	0	0	0	0	-0.000933953	0	-0.000629006	0	0	0
4.39	0	0	0	-0.000933975	0	-0.00062895	0	0	0	0	0	0	-0.000933956	0	-0.000628933	0	0	0
4.4	0	0	0	-0.000933978	0	-0.000628877	0	0	0	0	0	0	-0.00093396	0	-0.00062886	0	0	0
4.41	0	0	0	-0.00093398	0	-0.000628805	0	0	0	0	0	0	-0.000933963	0	-0.000628788	0	0	0
4.42	0	0	0	-0.000933983	0	-0.000628733	0	0	0	0	0	0	-0.000933966	0	-0.000628717	0	0	0
4.43	0	0	0	-0.000933986	0	-0.000628662	0	0	0	-26.4299	92.4449	-13.161	1.01115	0	-0.352012	-0	0.536612	-0
4.44	0	0	0	-0.000933988	0	-0.000628593	0	0	0	-25.5899	225.72	-21.6803	0.949692	0	-0.368195	0	-1.31569	0
4.45	0	0	0	-0.000933991	0	-0.000628524	0	0	0	-15.5091	452.357	-22.0644	0.929045	0	-0.369774	0	-1.80729	0
4.46	0	0	0	-0.000933993	0	-0.000628456	0	0	0	-31.5707	720.341	-3.91848	0.91637	0	-0.37021	0	-1.43492	0
4.47	0	0	0	-0.000933996	0	-0.00062839	0	0	0	-88.3366	932.343	21.4098	0.90446	0	-0.371112	0	-1.24133	0
4.48	0	0	0	-0.000933998	0	-0.000628324	0	0	0	-150.013	1074.79	19.486	0.887634	0	-0.372795	0	-1.52523	0
4.49	0	0	0	-0.000934	0	-0.000628259	0	0	0	-181.199	1212.84	0.909522	0.861894	0	-0.374816	0	-1.91982	0
4.5	0	0	0	-0.000934003	0	-0.000628195	0	0	0	-173.58	1369.83	16.5303	0.827452	0	-0.376567	0	-2.02737	0
4.51	0	0	0	-0.000934005	0	-0.000628132	0	0	0	-141.311	1511.54	54.7043	0.787889	0	-0.377956	0	-1.72249	0
4.52	0	0	0	-0.000934007	0	-0.000628071	0	0	0	-92.0044	1600.56	66.5274	0.746469	0	-0.379139	0	-1.13162	0
4.53	0	0	0	-0.00093401	0	-0.00062801	0	0	0	-29.1693	1625.77	54.3853	0.704376	0	-0.379969	0	-0.590712	0
4.54	0	0	0	-0.000934012	0	-0.00062795	0	0	0	42.3108	1592.1	50.1657	0.66156	0	-0.380026	0	-0.469322	0
4.55	0	0	0	-0.000934014	0	-0.000627891	0	0	0	114.932	1499.95	49.9244	0.617926	0	-0.379024	0	-0.782682	0
4.56	0	0	0	-0.000934016	0	-0.000627834	0	0	0	180.471	1347.3	34.074	0.573902	0	-0.376986	0	-1.03675	0
4.57	0	0	0	-0.000934018	0	-0.000627777	0	0	0	229.085	1145.95	7.3124	0.530471	0	-0.374125	0	-0.605478	0
